<svg version="1.1" xmlns="http://www.w3.org/2000/svg" viewBox="0 0 34 32">
<path d="M8.803 14.667h15.396c1.149 0 1.76-1.36 0.996-2.22l-7.697-8.66c-0.125-0.141-0.278-0.254-0.45-0.331s-0.358-0.117-0.546-0.117c-0.188 0-0.374 0.040-0.546 0.117s-0.325 0.19-0.45 0.331l-7.7 8.66c-0.764 0.86-0.153 2.22 0.997 2.22zM15.504 28.212c0.125 0.141 0.278 0.254 0.45 0.331s0.358 0.117 0.546 0.117 0.374-0.040 0.546-0.117c0.172-0.077 0.325-0.19 0.45-0.331l7.697-8.66c0.765-0.859 0.155-2.219-0.996-2.219h-15.395c-1.149 0-1.76 1.36-0.996 2.22l7.697 8.659z"></path>
</svg>
